<svg version="1.2" xmlns="http://www.w3.org/2000/svg" viewBox="0 0 480 242" width="482" height="243">
	<title>Nouveau projet</title>
	<style>
		.s0 { fill: #000000 } 
	</style>
	<path id="Eva luxury" class="s0" aria-label="Eva luxury"  d="m25.3 125.9l-0.1-50.4 29.2-0.1v-1.5l-29.2 0.1-0.2-50.3 32.3-0.1v-1.3l-40.5 0.1 0.2 105 43.4-0.1v-1.5zm46.1-103.6l21.2 104.9h1.5l19.3-105h-1.5l-15.7 85.4-15.4-85.3zm85.2 104.8h8.2l-25.3-105h-8.1l4.3 17.7-19 87.4h1.5l7.5-35.2h22.5zm-30.3-36.5l10.2-47.5 11.4 47.4zm93.9 34.9l-0.2-103.5h-8.1l0.2 105h26.6v-1.5zm59.8-103.7l0.2 88.1c0 10.8-4.4 17-11.9 17-7.5 0-11.8-6.2-11.8-17l-0.2-88h-8.1l0.2 86.1c0 15 8.1 19.9 19.9 19.9 12 0 20-5 20-20l-0.2-86.1zm54.6 104.9l-14.3-55 10.8-50h-1.5l-10.1 46.8-12.2-46.7h-8.7l14.8 56.7-11 48.3h1.5l10.2-45.3 12 45.2zm70.1-48.1c7.5-3.8 9.6-11.7 9.5-22.2v-10.1c0-15-4.4-24.7-22.2-24.7-0.2 0-10.1 0-10.1 0l0.2 88.1c0 10.9-4.3 16.9-11.8 17-7.5 0-11.9-6-11.9-17l-0.2-88h-8.1l0.2 86.1c0 15 8 19.9 20 19.9 12 0 19.9-5 19.9-20l-0.1-26.5c0.6 0 1.2 0 2 0 1.9 0 3.7-0.2 5.4-0.5l12.2 45.9h8.4zm-12.6 1c-0.7 0-1.3 0-1.9 0l-0.1-56.5c0.6 0 1.2 0 1.9 0 12.2 0 14.1 10.2 14.2 21.3v13.9c0 11.1-1.9 21.3-14.1 21.3zm72.1-58.2h-1.5l-12.7 56.8-16.1-56.7h-8.4l17.6 58.6 0.1 46.4h8.1l-0.2-46.1z"/>
	<path id="rffv" class="s0" aria-label="rffv"  d="m203.6 231l-9.6-34.6c5.3-2.7 6.9-8.4 6.9-15.9v-7.3c0-10.8-3.3-17.8-16-17.8-0.5 0-7.3 0-7.3 0v75.6h5.8v-32.8c0.4 0 1 0 1.5 0 1.4 0 2.7 0 3.8-0.2l8.8 33zm-20.2-33.8v-40.7c0.5 0 1 0 1.6 0 8.7 0 10.1 7.3 10.1 15.3v10.1c0 8-1.4 15.3-10.1 15.3-0.6 0-1.1 0-1.6 0zm82.3-40.7v-1.1h-50.7v75.6h5.8v-37.3h9.3v-1h-9.3v-36.2h19.6v74.5h5.8v-37.3h9.3v-1h-9.3v-36.2zm7.6-1.1l15.1 75.6h1.1l14-75.6h-1.1l-11.4 61.5-10.9-61.5z"/>
</svg>